<?xml version="1.0" encoding="UTF-8" standalone="no"?>
<svg width="206px" height="143px" viewBox="0 0 206 143" version="1.1" xmlns="http://www.w3.org/2000/svg" xmlns:xlink="http://www.w3.org/1999/xlink">
    <!-- Generator: Sketch 39.1 (31720) - http://www.bohemiancoding.com/sketch -->
    <title>Page 1</title>
    <desc>Created with Sketch.</desc>
    <defs>
        <polygon id="path-1" points="73.428582 0.312832952 0.0225977742 0.312832952 0.0225977742 41.2769991 73.428582 41.2769991 73.428582 0.312832952"></polygon>
        <polygon id="path-3" points="0 0.169342105 0 23.3900315 48.4466149 23.3900315 48.4466149 0.169342105"></polygon>
        <polygon id="path-5" points="0 142.687167 205.836576 142.687167 205.836576 0.327231121 0 0.327231121"></polygon>
    </defs>
    <g id="Page-1" stroke="none" stroke-width="1" fill="none" fill-rule="evenodd">
        <g id="Pegski-Copy-3" transform="translate(-476.000000, -98.000000)">
            <g id="Page-1" transform="translate(476.000000, 98.000000)">
                <path d="M21.9171882,84.4422526 C21.5988544,84.0711725 21.2690579,83.7092549 20.9651342,83.3267217 C20.1290165,82.2756554 19.2860213,81.2298247 18.4797065,80.1565066 C17.4932645,78.8452915 16.4275666,77.5746531 15.6084792,76.1633053 C14.8460499,74.8497995 14.807732,73.3343922 15.2125269,71.8490902 C15.6409021,70.2780535 16.582476,69.1072206 17.9183647,68.16774 C19.1193218,67.3231565 20.2141676,66.3277195 21.3610865,65.4055822 C21.5464537,65.2570192 21.7481962,65.1074746 21.9676238,65.0292664 C22.0996079,64.9818178 22.3422884,65.014541 22.429732,65.1091108 C24.2644092,67.0790421 26.5235316,67.666422 29.0338496,66.8866302 C31.3640404,66.162795 33.2245905,64.2376943 33.4685809,61.3760581 C33.5930324,59.9205341 33.2832137,58.6116096 32.4857415,57.4123076 C32.2479736,57.0549712 32.2957892,56.8844838 32.647201,56.6233533 C33.6356079,55.8877378 34.5761994,55.0879849 35.5426636,54.3212824 C36.1406859,53.84647 36.7478782,53.383438 37.3550706,52.9194243 C38.0333313,52.4014174 38.7161771,51.888319 39.4255507,51.3513327 C40.145732,51.9750352 40.9458242,52.2302755 41.8621803,51.8398888 C42.8401072,51.423978 43.3035253,50.2171497 42.993379,49.4245959 C42.7094331,48.6974883 42.8882502,48.2230032 43.5488258,47.8653396 C44.0361517,47.6012641 44.4802471,47.2589803 44.9623329,46.9857423 C45.2207335,46.8391428 45.5151596,46.7494815 45.8020531,46.6611291 C46.0774839,46.5763762 46.3640499,46.5259826 46.6453758,46.4605364 C46.6421008,46.4124334 46.6384983,46.3646577 46.6355507,46.3165547 C46.495379,46.2321291 46.3545523,46.1473762 46.1881803,46.0472435 C46.867751,45.5037126 47.5122789,44.9850513 48.1604092,44.4699895 C48.6863806,44.0514609 49.1969593,43.6083899 49.7540436,43.2356737 C49.9810038,43.0838384 50.3343806,42.9873053 50.5944188,43.0396622 C52.1268099,43.347914 53.6408607,43.7464815 55.1752169,44.0426256 C58.8557065,44.7530444 61.9565141,41.7670604 61.7013886,38.2326371 C61.6643806,37.7198659 61.4590356,37.2205112 61.3787971,36.7080673 C61.3558719,36.5621222 61.452158,36.3059002 61.569732,36.2433991 C62.6128321,35.6880879 63.6755825,35.1704082 64.7271978,34.6317858 C66.3313122,33.8091268 67.9308417,32.9766508 69.5343011,32.1513739 C71.0725873,31.3598018 72.6069434,30.5613579 74.1560372,29.7900741 C74.547732,29.5947172 74.9436843,29.3646737 75.4464029,29.5698476 C75.7650642,29.6997584 75.9907145,29.4225936 76.0018496,29.0348247 C76.0041421,28.9432 76.1092709,28.8198339 76.199007,28.7717309 C76.6984506,28.5066737 77.2070642,28.2605959 77.6531246,28.0374243 C77.8522471,28.1441016 78.0582471,28.3440398 78.2059514,28.3077172 C78.3523456,28.2717217 78.4319291,27.9909574 78.5553981,27.828978 C78.6601994,27.691541 78.7613981,27.5253076 78.9051723,27.448081 C79.7710928,26.9817767 80.647821,26.5354334 81.5225841,26.0861451 C83.0458051,25.3040627 84.5726286,24.5295066 86.0935571,23.7431703 C87.0177733,23.2650856 87.9272518,22.7572229 88.8553981,22.2869918 C90.1539514,21.62893 91.4685523,21.000319 92.7687431,20.3445478 C93.6638114,19.8929689 94.5434871,19.4096485 95.4356079,18.9518522 C96.8939831,18.2038018 98.3562884,17.464914 99.8172836,16.7217721 C100.596088,16.3254952 101.374238,15.9275822 102.153042,15.5319597 C103.612727,14.7897995 105.07536,14.0535295 106.53177,13.3054792 C107.195293,12.9648316 107.848009,12.6022595 108.562622,12.2187446 C109.028333,12.8146325 109.482253,13.4003762 109.944034,13.980557 C110.02591,14.0833076 110.141191,14.1602069 110.24108,14.2488865 C110.3973,14.4982366 110.554174,14.7482412 110.710066,14.9975913 C110.253525,15.3300581 109.78585,15.6487812 109.341427,15.9972824 C108.356295,16.7698751 107.390813,17.5679918 106.401424,18.3346943 C105.732333,18.8530284 105.020667,19.3170421 104.354524,19.8386485 C103.629102,20.4067217 102.941344,21.0222435 102.222473,21.5991519 C101.58384,22.1112686 100.918679,22.5900078 100.276772,23.0985249 C99.3374903,23.8429757 98.4175316,24.6119689 97.4726827,25.3492206 C96.4810006,26.1234494 95.4624633,26.863319 94.4684887,27.6346027 C93.133255,28.6706165 91.811449,29.7243007 90.4808003,30.7662046 C89.8657479,31.2475616 89.2382502,31.7132114 88.6251628,32.196859 C87.6282407,32.9835227 86.6417987,33.7829483 85.6452041,34.5696119 C84.9882312,35.0886005 84.3158655,35.5879551 83.65922,36.1066165 C82.7205936,36.8484494 81.7983424,37.6105707 80.8534935,38.3442229 C79.8477288,39.1253236 78.8141262,39.8710833 77.8106541,40.6544746 C76.5520563,41.6364952 75.3157288,42.6469849 74.0607335,43.633914 C73.1322598,44.3636394 72.1870833,45.072422 71.253042,45.7949483 C70.1316684,46.662438 69.0102948,47.5299277 67.8957987,48.4062526 C67.2689561,48.8990627 66.6473536,49.4000535 66.0375412,49.9141336 C65.4555666,50.4046531 64.9178051,50.9498201 64.3155253,51.4121977 C62.8856429,52.5097309 61.4190801,53.5598156 59.9852677,54.6527675 C58.5851882,55.7208499 57.2070515,56.8177286 55.8200722,57.9031542 C54.4458655,58.9784357 53.0759164,60.0579712 51.6987622,61.1293259 C50.2986827,62.2186783 48.8930356,63.3005043 47.4539831,64.4127629 C46.987945,63.8345455 46.5307494,63.2671268 46.0624188,62.6859643 C44.4933472,63.9127538 42.9858464,65.0914403 41.4832582,66.2662 C41.9623965,66.9167355 42.3868417,67.4933167 42.8234045,68.0862595 C41.7121835,68.9252801 40.6517256,69.7224151 39.5955253,70.5247858 C38.9575475,71.0087606 38.3218623,71.4960078 37.6920722,71.990454 C36.400069,73.0051977 35.1142884,74.0271405 33.8229402,75.0418842 C33.3038464,75.4502686 32.7716525,75.8416371 32.2532137,76.2510032 C31.1583679,77.1152206 30.0720372,77.9908911 28.9755539,78.8528178 C28.075573,79.5602915 27.1628194,80.2514037 26.2595634,80.9552778 C25.1853504,81.7920078 24.1111374,82.6297195 23.0464219,83.478557 C22.7169529,83.7409963 22.4176143,84.0417217 22.1045205,84.3254311 C22.0422948,84.3643716 21.9797415,84.4033121 21.9171882,84.4422526 L21.9171882,84.4422526 Z" id="Fill-1" fill="#C3996B"></path>
                <g id="Group-5" transform="translate(29.147854, 0.014398)">
                    <mask id="mask-2" fill="white">
                        <use xlink:href="#path-1"></use>
                    </mask>
                    <g id="Clip-4"></g>
                    <path d="M72.5961685,0.665653547 C72.8123211,1.1509373 72.9836057,1.66370847 73.2580541,2.11332403 C73.4941844,2.49847506 73.4630715,2.87086407 73.2986645,3.2023492 C73.2069634,3.38559863 72.8833895,3.45300824 72.6318665,3.59044531 C72.6574118,3.62676796 72.7127599,3.70530343 72.7874308,3.81034462 C71.2615898,4.93503799 69.7311638,6.05024165 68.2144928,7.18409748 C66.9463975,8.13241327 65.6982798,9.10887094 64.433132,10.0614407 C62.9914595,11.1471936 61.5396343,12.2192027 60.0933768,13.2990654 C58.6785596,14.3556947 57.2617774,15.4103606 55.8515453,16.4738618 C54.5729698,17.4378847 53.3061844,18.4176146 52.0269539,19.3806558 C50.5993641,20.4559373 49.1603116,21.5164934 47.7333768,22.5924293 C47.3577297,22.8758114 47.0246582,23.2174407 46.6388585,23.4841341 C46.4577488,23.6094636 46.1764229,23.5819762 45.976973,23.6902897 C45.2119237,24.1045643 44.4527695,24.5312737 43.7099905,24.9841616 C43.4018092,25.1719922 43.1411161,25.4377039 42.8296598,25.6916352 C42.8859905,25.8231822 42.9478887,25.9678183 43.0350048,26.1710288 C42.7481113,26.3503515 42.4700604,26.6507497 42.1553291,26.6962348 C41.3477043,26.8120746 40.6045978,27.2191501 40.3023116,27.8376169 C39.7134595,29.0392096 38.5108649,29.4096352 37.6230016,30.1858275 C36.5304483,31.1410151 35.3416089,31.9859259 34.1842099,32.8651959 C33.6461208,33.2742348 33.081504,33.6476055 32.5342448,34.0445368 C32.096372,34.3622783 31.6663593,34.6908183 31.2376566,35.011832 C29.6296121,33.1279625 26.9237742,32.5477817 24.7671606,33.574633 C23.3533259,34.2480746 22.3295485,35.3272828 21.8117647,36.8374545 C21.303151,38.3207931 21.4567504,39.7629007 22.1916693,41.2769991 C20.9713895,41.0165231 19.8749062,40.7943332 18.7846455,40.5459648 C15.572814,39.814276 12.3652401,39.0616444 9.15177107,38.3358458 C6.51470906,37.7402851 3.87731955,37.1414522 1.22715739,36.6067565 C0.359926868,36.4320151 0.293116057,35.7543195 0.0225977742,35.1747931 C0.848562798,34.7657542 1.65389507,34.3583515 2.46675994,33.9663286 C3.56062321,33.4391593 4.66332909,32.9296604 5.75719237,32.4018366 C6.51077901,32.0382828 7.25192051,31.6482233 8.00550715,31.2846696 C9.11738315,30.7489922 10.2400668,30.2336032 11.3506328,29.6956352 C12.1215771,29.3222645 12.8764738,28.9161707 13.6461081,28.5398549 C14.8198824,27.9658915 16.0018442,27.4095986 17.1759459,26.8362897 C17.9288776,26.4691364 18.6690366,26.0754773 19.4226232,25.7099602 C20.5502194,25.1634842 21.6899332,24.6418778 22.8149094,24.0904934 C23.9415231,23.5378 25.046849,22.9432211 26.1787027,22.402308 C27.2846836,21.8738297 28.4201399,21.4071982 29.5267758,20.8793744 C30.2561272,20.5315277 30.9487981,20.1084178 31.6715994,19.7468275 C32.9072719,19.1283606 34.1553895,18.5350906 35.3953196,17.925459 C36.4394022,17.4120334 37.4746423,16.8809373 38.522,16.3747108 C39.6014531,15.8531043 40.6969539,15.3642211 41.775097,14.8393423 C42.6092496,14.4332485 43.4214595,13.9806879 44.2549571,13.5723034 C45.3645405,13.0287725 46.4875517,12.5130563 47.6004102,11.97607 C48.3389316,11.6197153 49.0653355,11.2391455 49.8035294,10.8827908 C50.9324356,10.3382783 52.0711669,9.81470847 53.1967981,9.26430572 C54.3073641,8.72077483 55.4031924,8.14582975 56.5137583,7.60131716 C57.6207218,7.0581135 58.7411129,6.54108833 59.8510238,6.0024659 C60.6206582,5.62942243 61.3778474,5.23216384 62.1474817,4.85879314 C63.6166645,4.14542929 65.092725,3.44580915 66.5625628,2.73277254 C67.2984642,2.37543616 68.0278156,2.00304714 68.7584769,1.63393043 C69.5258188,1.24583432 70.288903,0.848902975 71.0588649,0.465388101 C71.5301431,0.230108924 72.0069889,0.292610069 72.4789221,0.478150114 C72.5182226,0.540651259 72.5571955,0.603152403 72.5961685,0.665653547" id="Fill-3" fill="#A07F58" mask="url(#mask-2)"></path>
                </g>
                <g id="Group-8" transform="translate(0.000000, 37.645977)">
                    <mask id="mask-4" fill="white">
                        <use xlink:href="#path-3"></use>
                    </mask>
                    <g id="Clip-7"></g>
                    <path d="M0.56193132,11.4460538 C1.03222703,11.2398982 1.50874531,11.0465046 1.97118092,10.8249691 C3.49538442,10.0952437 5.0182779,9.36290046 6.5342938,8.61714073 C7.95336852,7.91948398 9.35672305,7.18943135 10.7787453,6.49897368 C12.1339568,5.84123913 13.511111,5.22833524 14.8673049,4.57256407 C15.7243828,4.15796224 16.5536229,3.6864222 17.4080808,3.26593021 C18.4652636,2.74497826 19.5378391,2.2554405 20.5999345,1.7433238 C21.3698963,1.37224371 22.1316706,0.984802059 22.8999949,0.610122426 C23.2058836,0.461232265 23.5193049,0.328049199 23.8684242,0.169342105 C24.2050983,0.816932494 24.5270347,1.43638101 24.8791014,2.11374943 C25.8855211,1.61210412 26.8952159,1.11962128 27.8944305,0.606522883 C28.2939854,0.40134897 28.6748725,0.41574714 29.1022652,0.514243707 C32.919324,1.39416819 36.7445704,2.23678833 40.5590092,3.12882037 C43.2144114,3.75023227 45.8560585,4.43120023 48.4466149,5.0712643 C47.952739,5.33697597 47.3324464,5.68940389 46.6947962,6.00779977 C45.899944,6.40505835 45.1008343,6.7977357 44.2840394,7.1468913 C43.7639631,7.36908124 43.3179027,7.81182494 42.6697723,7.71169222 C42.5656261,7.69565789 42.4090792,7.87498055 42.3105005,7.99245652 C41.7789615,8.62335812 40.6061698,8.43061899 40.2603256,7.65540847 C40.1879472,7.49375629 40.0739758,7.35108352 39.9865323,7.21168307 C39.5257342,7.21659153 39.2100203,7.97805835 38.7066467,7.33766705 C38.0945418,8.12956636 37.5083097,8.88874256 36.9564655,9.60243364 C37.1726181,9.94766247 37.330475,10.1993032 37.4912795,10.4568341 C34.6960331,11.8184428 31.9748025,13.1440561 29.2424369,14.4745778 C27.2852731,11.4332918 24.5597851,10.112587 21.174704,11.5131362 C17.2823192,13.1234405 16.4727294,16.304127 17.6360235,20.135349 C16.3374703,20.78523 15.0507072,21.4596533 13.7374162,22.0777929 C12.5626595,22.6311407 11.4170506,23.2803673 10.0719917,23.3713375 C8.10860541,23.5045206 6.37119682,22.9315389 5.06445596,21.4766693 C4.33575962,20.6657906 3.83795358,19.6366487 3.29888203,18.6709897 C2.86526677,17.8947975 2.53121272,17.0633032 2.14410302,16.260278 C1.55230334,15.0331613 0.951988553,13.8096442 0.358551351,12.5835092 C0.232789825,12.3243421 0.119145946,12.0596121 -6.55007948e-05,11.7975 C0.187266773,11.6803513 0.374599046,11.5632025 0.56193132,11.4460538" id="Fill-6" fill="#A07F58" mask="url(#mask-4)"></path>
                </g>
                <path d="M58.1485927,41.7354172 C56.5222079,42.812662 54.1464941,42.3214881 53.1014289,40.5825819 C51.9780903,38.7134378 52.445111,36.6234126 54.3249838,35.4669778 C55.9697087,34.4558336 58.1276324,34.8069526 59.3181094,36.6535178 C60.3834798,38.3053805 60.0196229,40.547241 58.1485927,41.7354172" id="Fill-9" fill="#D1D2D4"></path>
                <path d="M59.7125552,79.5099961 L53.3265552,79.5099961 L53.3265552,89.0811792 L59.7125552,89.0811792 C62.8071402,89.0811792 64.7721641,87.1668771 64.7721641,84.3199664 C64.7721641,81.4733828 62.8071402,79.5099961 59.7125552,79.5099961 M60.0564343,95.2164355 L53.3265552,95.2164355 L53.3265552,108.370472 L46.4980973,108.370472 L46.4980973,73.4234973 L60.0564343,73.4234973 C67.2775695,73.4234973 71.6006219,78.3810487 71.6006219,84.3199664 C71.6006219,90.2592112 67.2775695,95.2164355 60.0564343,95.2164355" id="Fill-11" fill="#F0F1F1"></path>
                <polygon id="Fill-13" fill="#F0F1F1" points="77.3485132 108.37057 77.3485132 73.4235954 100.387763 73.4235954 100.387763 79.5100943 84.1769711 79.5100943 84.1769711 87.7069066 97.9806086 87.7069066 97.9806086 93.7930783 84.1769711 93.7930783 84.1769711 102.284399 100.387763 102.284399 100.387763 108.37057"></polygon>
                <path d="M128.63485,104.689384 C125.932942,107.437798 122.69098,108.664915 118.76126,108.664915 C115.027387,108.664915 111.883676,107.389041 109.329473,104.836638 C107.806252,103.315013 106.873193,101.547965 106.480188,99.5845783 C106.086856,97.6215188 105.890681,94.7255233 105.890681,90.8972465 C105.890681,87.0686423 106.086856,84.1729741 106.480188,82.2095874 C106.873193,80.197116 107.806252,78.4791526 109.329473,76.9575279 C111.883676,74.4054524 115.027387,73.129251 118.76126,73.129251 C126.718951,73.129251 130.992551,78.2337293 131.926265,84.3199009 L125.049009,84.3199009 C124.213873,80.933386 122.150598,79.2154227 118.76126,79.2154227 C116.943613,79.2154227 115.469845,79.8535233 114.389082,81.08064 C113.111816,82.7004341 112.718811,83.9766355 112.718811,90.8972465 C112.718811,97.7687728 113.013565,99.1431435 114.389082,100.76261 C115.420392,101.989727 116.89416,102.578743 118.76126,102.578743 C120.775082,102.578743 122.396226,101.940642 123.624039,100.615356 C124.656004,99.4376515 125.196058,97.8669421 125.196058,95.95264 L125.196058,94.627354 L118.76126,94.627354 L118.76126,88.9338597 L131.975063,88.9338597 L131.975063,94.038338 C131.975063,99.1431435 131.042004,102.136981 128.63485,104.689384" id="Fill-15" fill="#F0F1F1"></path>
                <path d="M148.43253,108.665046 C143.27467,108.665046 139.983255,107.24159 136.790092,104.051414 L138.656864,102.186197 C141.800902,105.327288 144.404231,106.308981 148.579907,106.308981 C154.130772,106.308981 157.569236,103.658737 157.569236,99.0938625 C157.569236,96.9832217 156.980057,95.3146703 155.653666,94.1857229 C154.327274,93.1549449 153.492139,92.7131828 150.594057,92.3205055 L146.516632,91.6824048 C143.864177,91.2897275 141.800902,90.4556153 140.278009,89.1300021 C138.460362,87.6087046 137.526976,85.4489792 137.526976,82.7002378 C137.526976,76.8104048 141.653526,73.1290547 148.383405,73.1290547 C152.706457,73.1290547 155.457163,74.3070867 158.453824,76.9085741 L156.734429,78.6265375 C154.671154,76.6631508 152.362578,75.3869494 148.236028,75.3869494 C143.127293,75.3869494 140.130632,78.1356908 140.130632,82.6023957 C140.130632,84.6145398 140.720139,86.1361645 141.948279,87.1669426 C143.176092,88.1977206 145.190569,88.9830753 147.155592,89.3263407 L150.937608,89.915684 C154.229023,90.3571188 155.751917,90.9952195 157.176559,92.2223362 C159.092457,93.7930455 160.222018,96.1981943 160.222018,98.9956931 C160.222018,104.934938 155.751917,108.665046 148.43253,108.665046" id="Fill-17" fill="#F0F1F1"></path>
                <polygon id="Fill-19" fill="#F0F1F1" points="179.528476 88.7865403 171.177452 98.8976547 171.177452 108.370668 168.52467 108.370668 168.52467 73.4236936 171.177452 73.4236936 171.177452 95.2653892 188.911137 73.4236936 192.103974 73.4236936 181.296997 86.7743961 193.921621 108.370668 190.77791 108.370668"></polygon>
                <mask id="mask-6" fill="white">
                    <use xlink:href="#path-5"></use>
                </mask>
                <g id="Clip-22"></g>
                <polygon id="Fill-21" fill="#F0F1F1" mask="url(#mask-6)" points="200.210057 108.370439 202.862839 108.370439 202.862839 73.4234645 200.210057 73.4234645"></polygon>
                <polygon id="Fill-23" fill="#FEFEFE" mask="url(#mask-6)" points="57.1107326 137.129997 53.9054512 127.663855 50.7001698 137.129997 49.4753049 137.129997 45.8459059 125.779986 47.1654194 125.779986 50.0641571 135.717013 53.3162715 125.779986 54.4946308 125.779986 57.7470728 135.717013 60.645483 125.779986 61.9656515 125.779986 58.3362525 137.129997"></polygon>
                <path d="M71.2266779,128.605692 C70.7321469,127.404754 69.6006207,126.698262 68.2811072,126.698262 C66.9615936,126.698262 65.8297399,127.404754 65.3348814,128.605692 C65.0758258,129.335745 65.0054124,129.641706 64.934344,130.748401 L71.6278703,130.748401 C71.5568019,129.665266 71.5332216,129.288623 71.2266779,128.605692 M68.6341564,136.187964 C69.9779052,136.187964 70.8025603,135.787761 71.7690245,134.822429 L72.6647479,135.528594 C71.5093138,136.682738 70.448856,137.271099 68.5637431,137.271099 C65.42953,137.271099 63.7324045,135.246193 63.7324045,131.454893 C63.7324045,127.781397 65.42953,125.638687 68.2811072,125.638687 C71.1326843,125.638687 72.8298099,127.687154 72.8298099,131.172493 L72.8298099,131.71406 L64.934344,131.71406 C64.934344,134.610383 66.207352,136.187964 68.6341564,136.187964" id="Fill-24" fill="#FEFEFE" mask="url(#mask-6)"></path>
                <path d="M86.4741494,126.698393 C83.6929857,126.698393 83.268868,129.100269 83.268868,131.455024 C83.268868,133.809779 83.6929857,136.211656 86.4741494,136.211656 C89.2546582,136.211656 89.6794308,133.809779 89.6794308,131.455024 C89.6794308,129.100269 89.2546582,126.698393 86.4741494,126.698393 M86.2380191,142.687232 C84.541876,142.687232 83.6694054,142.239908 82.4910461,141.180006 L83.2924483,140.379599 C84.1881717,141.203894 84.8009316,141.627658 86.2380191,141.627658 C88.618973,141.627658 89.6794308,139.955834 89.6794308,137.694995 L89.6794308,135.670088 C88.6654785,136.988503 87.6050207,137.27123 86.3090874,137.27123 C85.1071479,137.27123 84.1171033,136.871027 83.5279237,136.282338 C82.3734722,135.128521 82.0669285,133.244651 82.0669285,131.455024 C82.0669285,129.665397 82.3734722,127.781528 83.5279237,126.627711 C84.1171033,126.039022 85.1071479,125.638818 86.3090874,125.638818 C87.6050207,125.638818 88.6654785,125.921219 89.6794308,127.23996 L89.6794308,125.779855 L90.8813704,125.779855 L90.8813704,137.765676 C90.8813704,140.614878 89.1842448,142.687232 86.2380191,142.687232" id="Fill-25" fill="#FEFEFE" mask="url(#mask-6)"></path>
                <path d="M101.721654,127.66379 C101.085314,127.02798 100.283584,126.698458 99.3646076,126.698458 C98.445304,126.698458 97.6445568,127.02798 97.007889,127.66379 C96.0653326,128.605561 95.9949192,130.136348 95.9949192,131.454762 C95.9949192,132.773504 96.0653326,134.304291 97.007889,135.246062 C97.6445568,135.881872 98.445304,136.211721 99.3646076,136.211721 C100.283584,136.211721 101.085314,135.881872 101.721654,135.246062 C102.663883,134.304291 102.734951,132.773504 102.734951,131.454762 C102.734951,130.136348 102.663883,128.605561 101.721654,127.66379 M102.522401,136.023236 C101.698073,136.847204 100.661196,137.271296 99.3646076,137.271296 C98.0922547,137.271296 97.0317968,136.847204 96.2064868,136.023236 C95.0045472,134.822298 94.7923246,133.079792 94.7923246,131.454762 C94.7923246,129.83006 95.0045472,128.087554 96.2064868,126.886616 C97.0317968,126.062321 98.0922547,125.638884 99.3646076,125.638884 C100.661196,125.638884 101.698073,126.062321 102.522401,126.886616 C103.724341,128.087554 103.936891,129.83006 103.936891,131.454762 C103.936891,133.079792 103.724341,134.822298 102.522401,136.023236" id="Fill-26" fill="#FEFEFE" mask="url(#mask-6)"></path>
                <path d="M108.131005,134.162862 L108.131005,126.674832 L106.575361,126.674832 L106.575361,125.779855 L108.131005,125.779855 L108.131005,122.15348 L109.332944,122.15348 L109.332944,125.779855 L111.901886,125.779855 L111.901886,126.674832 L109.332944,126.674832 L109.332944,134.186422 C109.332944,135.387361 109.874636,136.070292 111.076576,136.070292 L111.901886,136.070292 L111.901886,137.129866 L110.865008,137.129866 C109.073234,137.129866 108.131005,135.881807 108.131005,134.162862" id="Fill-27" fill="#FEFEFE" mask="url(#mask-6)"></path>
                <path d="M122.977415,141.533383 C122.411816,142.07495 121.586833,142.263108 120.832591,142.263108 L120.26732,142.263108 L120.26732,141.203861 L120.715017,141.203861 C122.010951,141.203861 122.388235,140.77977 122.788773,139.649513 L123.707749,137.129834 L119.560238,125.779822 L120.880079,125.779822 L124.296928,135.717177 L127.71476,125.779822 L129.034273,125.779822 L123.755237,140.214641 C123.543014,140.826891 123.283959,141.274216 122.977415,141.533383" id="Fill-28" fill="#FEFEFE" mask="url(#mask-6)"></path>
                <path d="M137.683129,127.66379 C137.046789,127.02798 136.245714,126.698458 135.326738,126.698458 C134.407435,126.698458 133.606032,127.02798 132.969365,127.66379 C132.027136,128.605561 131.956395,130.136348 131.956395,131.454762 C131.956395,132.773504 132.027136,134.304291 132.969365,135.246062 C133.606032,135.881872 134.407435,136.211721 135.326738,136.211721 C136.245714,136.211721 137.046789,135.881872 137.683129,135.246062 C138.626013,134.304291 138.696427,132.773504 138.696427,131.454762 C138.696427,130.136348 138.626013,128.605561 137.683129,127.66379 M138.484532,136.023236 C137.659549,136.847204 136.622672,137.271296 135.326738,137.271296 C134.05373,137.271296 132.993272,136.847204 132.168617,136.023236 C130.966678,134.822298 130.754455,133.079792 130.754455,131.454762 C130.754455,129.83006 130.966678,128.087554 132.168617,126.886616 C132.993272,126.062321 134.05373,125.638884 135.326738,125.638884 C136.622672,125.638884 137.659549,126.062321 138.484532,126.886616 C139.686471,128.087554 139.898366,129.83006 139.898366,131.454762 C139.898366,133.079792 139.686471,134.822298 138.484532,136.023236" id="Fill-29" fill="#FEFEFE" mask="url(#mask-6)"></path>
                <path d="M151.209928,135.787662 C150.361693,136.776555 149.253747,137.271328 147.863165,137.271328 C146.61472,137.271328 145.600767,136.917919 144.846526,136.188193 C144.068704,135.43458 143.668494,134.375006 143.668494,133.032704 L143.668494,125.779953 L144.870433,125.779953 L144.870433,132.820658 C144.870433,135.010489 145.954472,136.211427 148.004646,136.211427 C150.055476,136.211427 151.209928,134.987255 151.209928,132.820658 L151.209928,125.779953 L152.411867,125.779953 L152.411867,137.129965 L151.209928,137.129965 L151.209928,135.787662 Z" id="Fill-30" fill="#FEFEFE" mask="url(#mask-6)"></path>
                <path d="M161.225032,126.698393 C159.268851,126.698393 158.185468,128.323095 158.185468,130.136283 L158.185468,137.129866 L156.983528,137.129866 L156.983528,125.779855 L158.185468,125.779855 L158.185468,127.287081 C158.844733,126.227507 160.165229,125.638818 161.508323,125.638818 C162.615614,125.638818 163.417016,125.897658 164.241671,126.721953 L163.369856,127.593043 C162.686682,126.910111 162.167916,126.698393 161.225032,126.698393" id="Fill-31" fill="#FEFEFE" mask="url(#mask-6)"></path>
                <path d="M177.037972,126.698393 C174.257463,126.698393 173.833346,129.100269 173.833346,131.455024 C173.833346,133.809779 174.257463,136.211656 177.037972,136.211656 C179.819136,136.211656 180.243253,133.809779 180.243253,131.455024 C180.243253,129.100269 179.819136,126.698393 177.037972,126.698393 M179.984198,136.282338 C179.395018,136.871027 178.404974,137.27123 177.203034,137.27123 C175.907101,137.27123 174.846643,136.988503 173.833346,135.670088 L173.833346,142.545869 L172.631406,142.545869 L172.631406,125.779855 L173.833346,125.779855 L173.833346,127.23996 C174.846643,125.921219 175.907101,125.638818 177.203034,125.638818 C178.404974,125.638818 179.395018,126.039022 179.984198,126.627711 C181.138649,127.781528 181.445193,129.665397 181.445193,131.455024 C181.445193,133.244651 181.138649,135.128521 179.984198,136.282338" id="Fill-32" fill="#FEFEFE" mask="url(#mask-6)"></path>
                <path d="M192.191417,128.605692 C191.696886,127.404754 190.56536,126.698262 189.245846,126.698262 C187.926333,126.698262 186.794479,127.404754 186.299621,128.605692 C186.040565,129.335745 185.970152,129.641706 185.899083,130.748401 L192.59261,130.748401 C192.521541,129.665266 192.497961,129.288623 192.191417,128.605692 M189.598896,136.187964 C190.942645,136.187964 191.7673,135.787761 192.733764,134.822429 L193.629487,135.528594 C192.474053,136.682738 191.413595,137.271099 189.528482,137.271099 C186.394269,137.271099 184.697144,135.246193 184.697144,131.454893 C184.697144,127.781397 186.394269,125.638687 189.245846,125.638687 C192.097424,125.638687 193.794549,127.687154 193.794549,131.172493 L193.794549,131.71406 L185.899083,131.71406 C185.899083,134.610383 187.172091,136.187964 189.598896,136.187964" id="Fill-33" fill="#FEFEFE" mask="url(#mask-6)"></path>
                <path d="M201.429322,126.698393 C198.648158,126.698393 198.22404,129.100269 198.22404,131.455024 C198.22404,133.809779 198.648158,136.211656 201.429322,136.211656 C204.209831,136.211656 204.634603,133.809779 204.634603,131.455024 C204.634603,129.100269 204.209831,126.698393 201.429322,126.698393 M201.193191,142.687232 C199.497048,142.687232 198.624578,142.239908 197.446218,141.180006 L198.247621,140.379599 C199.143344,141.203894 199.756104,141.627658 201.193191,141.627658 C203.574145,141.627658 204.634603,139.955834 204.634603,137.694995 L204.634603,135.670088 C203.620651,136.988503 202.560193,137.27123 201.26426,137.27123 C200.06232,137.27123 199.072276,136.871027 198.483096,136.282338 C197.328645,135.128521 197.022101,133.244651 197.022101,131.455024 C197.022101,129.665397 197.328645,127.781528 198.483096,126.627711 C199.072276,126.039022 200.06232,125.638818 201.26426,125.638818 C202.560193,125.638818 203.620651,125.921219 204.634603,127.23996 L204.634603,125.779855 L205.836543,125.779855 L205.836543,137.765676 C205.836543,140.614878 204.139417,142.687232 201.193191,142.687232" id="Fill-34" fill="#FEFEFE" mask="url(#mask-6)"></path>
            </g>
        </g>
    </g>
</svg>